<svg xmlns="http://www.w3.org/2000/svg" xmlns:xlink="http://www.w3.org/1999/xlink" width="27" height="27" viewBox="0 0 27 27"><defs><path id="ck1pa" d="M1286 1510.5a13.4 13.4 0 0 1-13.3 13.5 13.4 13.4 0 0 1-13.32-13.5 13.4 13.4 0 0 1 13.31-13.5 13.4 13.4 0 0 1 13.31 13.5zm-5.89 4.51l-.07-.23a2.12 2.12 0 0 0-1.3-1.23l-1.96-.55a1.9 1.9 0 0 0-1.68.45l-.71.72a7.61 7.61 0 0 1-5.32-5.39l.71-.72c.4-.4.59-1.17.44-1.7l-.53-2a2.12 2.12 0 0 0-1.22-1.31l-.22-.08c-.53-.17-1.28 0-1.67.4l-1.06 1.08c-.2.2-.32.74-.32.75a12.87 12.87 0 0 0 3.69 9.16 12.49 12.49 0 0 0 9 3.73c.02 0 .57-.12.76-.31l1.07-1.08c.39-.4.56-1.16.39-1.69z"/></defs><g><g transform="translate(-1259 -1497)"><use xlink:href="#ck1pa"/><use fill="#fff" xlink:href="#ck1pa"/></g></g></svg>