<svg xmlns="http://www.w3.org/2000/svg" xmlns:xlink="http://www.w3.org/1999/xlink" width="17" height="22" viewBox="0 0 17 22"><defs><path id="ji5oa" d="M405 19.47c0 .71-.09 1.4-.25 2.05-.07.4-.2.84-.36 1.3a21.86 21.86 0 0 1-3.16 5.46c-.92 1.24-2.96 4.72-4.73 4.72-1.67 0-3.55-3.12-4.46-4.3a22.21 22.21 0 0 1-3.44-5.92 7.79 7.79 0 0 1-.35-1.26A8.46 8.46 0 0 1 396.5 11h.02a8.49 8.49 0 0 1 8.48 8.47zm-4.6 2a4.47 4.47 0 1 0-3.9 2.27 4.52 4.52 0 0 0 3.9-2.27z"/></defs><g><g transform="translate(-388 -11)"><use fill="#fff" xlink:href="#ji5oa"/></g></g></svg>