<svg xmlns="http://www.w3.org/2000/svg" xmlns:xlink="http://www.w3.org/1999/xlink" width="78" height="78" viewBox="0 0 78 78"><defs><path id="65kpa" d="M875.54 964.91a6.4 6.4 0 0 1 3.23 1.74l17.33 17.33a6.45 6.45 0 1 1-9.12 9.12l-17.33-17.32a6.47 6.47 0 0 1-1.74-3.24 30.56 30.56 0 0 1-39-3.46 30.57 30.57 0 0 1 0-43.17 30.56 30.56 0 0 1 43.17 0 30.56 30.56 0 0 1 3.46 39zm-8.93-33.52a22.82 22.82 0 0 0-32.23 0 22.82 22.82 0 0 0 0 32.22 22.82 22.82 0 0 0 32.23 0 22.81 22.81 0 0 0 0-32.22z"/></defs><g><g opacity=".77" transform="translate(-820 -917)"><use fill="#fff" xlink:href="#65kpa"/></g></g></svg>