<svg xmlns="http://www.w3.org/2000/svg" xmlns:xlink="http://www.w3.org/1999/xlink" width="29" height="29" viewBox="0 0 29 29"><defs><path id="o4zca" d="M277 1507.4v11.12a5.47 5.47 0 0 1-5.44 5.48h-18.11c-3 0-5.44-2.46-5.44-5.48v-11.11c-.06-2.38.11-2.7.82-3.25l12.94-8.93a1.3 1.3 0 0 1 1.47 0l12.94 8.93c.82.68.82 1.34.82 3.25zm-2.51 11.12v-11.03l-11.25 7.76a1.3 1.3 0 0 1-1.47 0l-11.25-7.76v11.03a2.94 2.94 0 0 0 2.93 2.95h18.11a2.94 2.94 0 0 0 2.93-2.95z"/></defs><g><g transform="translate(-248 -1495)"><use xlink:href="#o4zca"/><use fill="#fff" xlink:href="#o4zca"/></g></g></svg>