<svg xmlns="http://www.w3.org/2000/svg" xmlns:xlink="http://www.w3.org/1999/xlink" width="23" height="18" viewBox="0 0 23 18"><defs><path id="eoy5a" d="M843 16.7v12.6c0 1.49-1.23 2.7-2.73 2.7h-17.54a2.72 2.72 0 0 1-2.73-2.7V16.7c0-1.49 1.23-2.7 2.73-2.7h17.54c1.5 0 2.73 1.21 2.73 2.7zm-2.32 12.6V18.37l-7.93 6.9a.89.89 0 0 1-.58.22h-1.34a.89.89 0 0 1-.58-.22l-7.93-6.9V29.3c0 .17.19.32.41.32h17.54c.22 0 .41-.15.41-.32zm-1.47-12.92h-15.43l7.72 6.74z"/></defs><g><g transform="translate(-820 -14)"><use fill="#fff" xlink:href="#eoy5a"/></g></g></svg>