<svg xmlns="http://www.w3.org/2000/svg" xmlns:xlink="http://www.w3.org/1999/xlink" width="14" height="26" viewBox="0 0 14 26"><defs><path id="niuea" d="M1057 12.76v22.48c0 .97-.73 1.76-1.63 1.76h-10.74c-.9 0-1.63-.8-1.63-1.76V12.76c0-.97.73-1.76 1.63-1.76h10.74c.9 0 1.63.79 1.63 1.76zm-8.92-.28c0 .12.1.21.2.21h3.44c.1 0 .2-.1.2-.21 0-.12-.1-.21-.2-.21h-3.44c-.1 0-.2.09-.2.2zm2.73 22.76c0-.48-.36-.87-.81-.87-.45 0-.81.39-.81.87 0 .49.36.88.81.88.45 0 .81-.4.81-.88zm5.06-21.46h-11.74v19.97h11.74z"/></defs><g><g transform="translate(-1043 -11)"><use fill="#fff" xlink:href="#niuea"/></g></g></svg>