<svg xmlns="http://www.w3.org/2000/svg" xmlns:xlink="http://www.w3.org/1999/xlink" width="31" height="31" viewBox="0 0 31 31"><defs><path id="v2ija" d="M1051.4 1511.5c0 8.56-6.8 15.5-15.2 15.5-8.4 0-15.2-6.94-15.2-15.5 0-8.56 6.8-15.5 15.2-15.5 8.4 0 15.2 6.94 15.2 15.5zm-7.66-.06c.56-.8 1.17-1.57 1.73-2.37.53-.75 1.07-1.49 1.35-2.38.18-.57.02-.82-.55-.92-.1-.02-.2-.02-.3-.02h-3.39c-.42 0-.65.18-.8.55-.2.51-.4 1.02-.64 1.51a12.44 12.44 0 0 1-1.98 3.11c-.19.2-.4.45-.7.35-.39-.14-.5-.8-.5-1.02v-3.98c-.08-.57-.2-.83-.76-.94h-3.51c-.47 0-.7.19-.96.49-.14.17-.19.28.11.34.58.11.91.5 1 1.1.14.95.13 1.9.05 2.86-.02.28-.07.56-.18.82-.17.42-.44.5-.8.25a3.32 3.32 0 0 1-.79-.88 19.41 19.41 0 0 1-2.06-3.9c-.16-.4-.43-.64-.85-.65a84.78 84.78 0 0 0-3.05 0c-.6.01-.8.32-.54.88a38.8 38.8 0 0 0 3.94 7.18 9.92 9.92 0 0 0 3 2.86 7.85 7.85 0 0 0 4.46.98c.74-.04.96-.24 1-.98.01-.52.07-1.03.32-1.49.24-.45.61-.53 1.03-.25.22.14.4.32.57.5.41.47.81.95 1.24 1.4.54.55 1.18.88 1.98.82h3.12c.5-.04.76-.66.47-1.24a6.1 6.1 0 0 0-.75-1.1c-.63-.77-1.38-1.44-2.1-2.14-.63-.64-.67-1-.16-1.74z"/></defs><g><g transform="translate(-1021 -1496)"><use xlink:href="#v2ija"/><use fill="#fff" xlink:href="#v2ija"/></g></g></svg>